<?xml version="1.0" encoding="UTF-8"?>
<svg width="200" height="200" viewBox="0 0 64 64" xmlns="http://www.w3.org/2000/svg" aria-hidden="true" focusable="false">
  <g fill="none" fill-rule="evenodd">
    <path d="M32 50c0 0 8-8 18-8 0 0-5 6-6 9-1.1 3.1-5 7-5 7s-6-6-7-8c-1-2-0-10 0-10z" fill="#2e7d32"/>
    <path d="M32 48s6-6 12-6c0 0-3 4-4 6-1 2-4 5-4 5s-3-3-4-5c-1.2-2.2-0-6-0-6z" fill="#1b5e20"/>
    <path d="M32 28c6-8 16-7 20 0 0 0-2-3-6-3-4 0-6 2-8 4-1.8 1.8-6 3-6 3s-1-2-0-4z" fill="#c62828"/>
    <path d="M31 25c-8 0-12 8-12 12 0 0 5-2 8-4 3-2 6-5 6-8 0-1 0-0 0-0z" fill="#e53935"/>
    <path d="M29 26c-6 2-10 6-10 10 0 0 4-1 6-3 2-2 6-6 6-7 0-1-2-0-2-0z" fill="#f44336"/>
    <path d="M34 22c6-3 12-2 16 2 0 0-3-2-7-2-4 0-6 2-7 4-1 2-0 3-0 3s-0-4-2-7z" fill="#d32f2f"/>
    <path d="M36 34c4-3 7-2 8 0 0 0-1-1-4-1-3 0-4 1-4 1z" fill="#b71c1c"/>
  </g>
</svg>